<?xml version="1.0" encoding="utf-8"?>
<svg version="1.1" id="Layer_1" xmlns="http://www.w3.org/2000/svg" xmlns:xlink="http://www.w3.org/1999/xlink" x="0px" y="0px"
	 viewBox="0 0 1125 1143" style="enable-background:new 0 0 1125 1143;" xml:space="preserve">
   <style type="text/css">
      .st0{fill:#FFFF00;}
      .st1{display:none;fill:#0000FF;}
      .st2{fill:#FF0000;}
      .st3{opacity:0.5;}
   </style>
   <rect class="st0" width="1125" height="1143"/>
   <rect x="54.5" y="42" class="st1" width="1016" height="1046"/>
   <polygon class="st2" points="172.05,42 214.05,0 102.33,0 60.33,42 "/>
   <polygon class="st2" points="395.26,42 437.26,0 325.54,0 283.54,42 "/>
   <polygon class="st2" points="577.45,0 548.75,0 507.24,41.51 507.72,42 618.47,42 618.96,41.51 "/>
   <polygon class="st2" points="842.66,42 800.66,0 688.93,0 730.93,42 "/>
   <polygon class="st2" points="1065.87,42 1023.87,0 912.14,0 954.14,42 "/>
   <polygon class="st2" points="1125,547.55 1070.5,493.05 1070.5,604.78 1125,659.28 "/>
   <polygon class="st2" points="1125,324.34 1070.5,269.84 1070.5,381.57 1125,436.07 "/>
   <polygon class="st2" points="1125,101.13 1070.5,46.63 1070.5,158.36 1125,212.86 "/>
   <polygon class="st2" points="1125,993.97 1070.5,939.47 1070.5,1051.2 1125,1105.7 "/>
   <polygon class="st2" points="1125,770.76 1070.5,716.26 1070.5,827.99 1125,882.49 "/>
   <polygon class="st2" points="827.61,1143 772.61,1088 660.88,1088 715.88,1143 "/>
   <polygon class="st2" points="1050.82,1143 995.82,1088 884.09,1088 939.09,1143 "/>
   <polygon class="st2" points="522.04,1143 604.16,1143 563.1,1101.94 "/>
   <polygon class="st2" points="465.31,1088 353.59,1088 298.59,1143 410.31,1143 "/>
   <polygon class="st2" points="242.1,1088 130.38,1088 75.38,1143 187.1,1143 "/>
   <polygon class="st2" points="0,883.68 54.5,829.18 54.5,717.46 0,771.96 "/>
   <polygon class="st2" points="0,1106.89 54.5,1052.39 54.5,940.67 0,995.17 "/>
   <polygon class="st2" points="0,102.33 0,152 0,214.05 54.5,159.55 54.5,47.83 "/>
   <polygon class="st2" points="0,437.26 54.5,382.76 54.5,271.04 0,325.54 "/>
   <polygon class="st2" points="0,660.47 54.5,605.97 54.5,494.25 0,548.75 "/>
   <polygon class="st2" points="477.5,266 562.5,336 647.5,266 "/>
   <polygon class="st2" points="477.5,792 562.5,862 647.5,792 "/>
   <rect x="106" y="89" class="st3" width="921" height="131"/>
   <rect x="106" y="906" class="st3" width="921" height="132"/>
   <rect x="106" y="592" class="st3" width="921" height="153"/>
   <rect x="106" y="384" class="st3" width="921" height="163"/>
</svg>
